<?xml version="1.0" encoding="UTF-8"?>
<svg id="Ebene_1" data-name="Ebene 1" xmlns="http://www.w3.org/2000/svg" xmlns:xlink="http://www.w3.org/1999/xlink" viewBox="0 0 757.8 260.07">
  <defs>
    <style>
      .cls-1 {
        fill: #edf0f2;
      }

      .cls-1, .cls-2, .cls-3, .cls-4, .cls-5, .cls-6, .cls-7, .cls-8, .cls-9, .cls-10, .cls-11, .cls-12, .cls-13, .cls-14, .cls-15, .cls-16, .cls-17, .cls-18 {
        stroke-width: 0px;
      }

      .cls-2 {
        fill: #999;
      }

      .cls-19 {
        font-size: 9.39px;
      }

      .cls-19, .cls-20, .cls-21 {
        fill: #1d1d1b;
        font-family: Rockwell, Rockwell;
      }

      .cls-22 {
        clip-path: url(#clippath-11);
      }

      .cls-23 {
        clip-path: url(#clippath-16);
      }

      .cls-24 {
        stroke: #000;
        stroke-width: .57px;
      }

      .cls-24, .cls-25, .cls-26, .cls-10, .cls-27, .cls-28, .cls-29, .cls-30, .cls-31 {
        fill: none;
      }

      .cls-24, .cls-29, .cls-30 {
        stroke-miterlimit: 10;
      }

      .cls-3 {
        fill: #004f8c;
      }

      .cls-4 {
        fill: #0573b5;
      }

      .cls-32 {
        letter-spacing: -.04em;
      }

      .cls-5 {
        fill: #404a52;
      }

      .cls-25 {
        stroke: #00508b;
      }

      .cls-25, .cls-27, .cls-29, .cls-30 {
        stroke-width: .95px;
      }

      .cls-33 {
        clip-path: url(#clippath-2);
      }

      .cls-34 {
        clip-path: url(#clippath-13);
      }

      .cls-26 {
        stroke: #6e7073;
      }

      .cls-26, .cls-28, .cls-31 {
        stroke-linecap: round;
        stroke-miterlimit: 8;
        stroke-width: 1.01px;
      }

      .cls-35 {
        letter-spacing: -.01em;
      }

      .cls-6 {
        fill: #99a3b5;
      }

      .cls-36 {
        clip-path: url(#clippath-15);
      }

      .cls-37 {
        clip-path: url(#clippath-6);
      }

      .cls-7 {
        fill: #b8bfcc;
      }

      .cls-8 {
        fill: #abb2c4;
      }

      .cls-9 {
        fill: #bf0000;
      }

      .cls-38 {
        letter-spacing: -.03em;
      }

      .cls-11 {
        fill: #b8b8b8;
      }

      .cls-39 {
        clip-path: url(#clippath-7);
      }

      .cls-27, .cls-30, .cls-31 {
        stroke: #bf0000;
      }

      .cls-40 {
        clip-path: url(#clippath-1);
      }

      .cls-41 {
        clip-path: url(#clippath-4);
      }

      .cls-12 {
        fill: #f2f5f7;
      }

      .cls-28 {
        stroke: #004f8c;
      }

      .cls-42 {
        clip-path: url(#clippath-12);
      }

      .cls-13 {
        fill: #fff;
      }

      .cls-43 {
        letter-spacing: -.02em;
      }

      .cls-44 {
        letter-spacing: .02em;
      }

      .cls-45 {
        letter-spacing: -.04em;
      }

      .cls-20 {
        font-size: 10.95px;
      }

      .cls-14 {
        fill: #dee2f2;
      }

      .cls-46 {
        letter-spacing: -.03em;
      }

      .cls-47 {
        letter-spacing: -.04em;
      }

      .cls-15 {
        fill: #00508b;
      }

      .cls-48 {
        clip-path: url(#clippath-9);
      }

      .cls-49 {
        clip-path: url(#clippath);
      }

      .cls-50 {
        letter-spacing: -.04em;
      }

      .cls-51 {
        clip-path: url(#clippath-19);
      }

      .cls-52 {
        clip-path: url(#clippath-3);
      }

      .cls-16 {
        fill: #cccfd6;
      }

      .cls-53 {
        clip-path: url(#clippath-8);
      }

      .cls-17 {
        fill: #575e66;
      }

      .cls-54 {
        clip-path: url(#clippath-18);
      }

      .cls-55 {
        letter-spacing: -.04em;
      }

      .cls-56 {
        clip-path: url(#clippath-14);
      }

      .cls-57 {
        clip-path: url(#clippath-17);
      }

      .cls-58 {
        clip-path: url(#clippath-5);
      }

      .cls-59 {
        letter-spacing: -.02em;
      }

      .cls-29 {
        stroke: #4d4d4d;
      }

      .cls-60 {
        clip-path: url(#clippath-10);
      }

      .cls-61 {
        letter-spacing: 0em;
      }

      .cls-62 {
        letter-spacing: -.05em;
      }

      .cls-21 {
        font-size: 12.51px;
      }

      .cls-18 {
        fill: #529ecc;
      }
    </style>
    <clipPath id="clippath">
      <rect class="cls-10" x="8.14" width="749.66" height="260.07"/>
    </clipPath>
    <clipPath id="clippath-1">
      <rect class="cls-10" x="8.14" width="749.66" height="260.07"/>
    </clipPath>
    <clipPath id="clippath-2">
      <rect class="cls-10" x="8.14" width="749.66" height="260.07"/>
    </clipPath>
    <clipPath id="clippath-3">
      <rect class="cls-10" x="8.14" width="749.66" height="260.07"/>
    </clipPath>
    <clipPath id="clippath-4">
      <rect class="cls-10" x="8.14" width="749.66" height="260.07"/>
    </clipPath>
    <clipPath id="clippath-5">
      <rect class="cls-10" x="8.14" width="749.66" height="260.07"/>
    </clipPath>
    <clipPath id="clippath-6">
      <rect class="cls-10" x="8.14" width="749.66" height="260.07"/>
    </clipPath>
    <clipPath id="clippath-7">
      <rect class="cls-10" x="8.14" width="749.66" height="260.07"/>
    </clipPath>
    <clipPath id="clippath-8">
      <rect class="cls-10" x="8.14" width="749.66" height="260.07"/>
    </clipPath>
    <clipPath id="clippath-9">
      <rect class="cls-10" x="8.14" width="749.66" height="260.07"/>
    </clipPath>
    <clipPath id="clippath-10">
      <rect class="cls-10" x="8.14" width="749.66" height="260.07"/>
    </clipPath>
    <clipPath id="clippath-11">
      <rect class="cls-10" x="8.14" width="749.66" height="260.07"/>
    </clipPath>
    <clipPath id="clippath-12">
      <rect class="cls-10" x="8.14" width="749.66" height="260.07"/>
    </clipPath>
    <clipPath id="clippath-13">
      <rect class="cls-10" x="8.14" width="749.66" height="260.07"/>
    </clipPath>
    <clipPath id="clippath-14">
      <rect class="cls-10" x="8.14" width="749.66" height="260.07"/>
    </clipPath>
    <clipPath id="clippath-15">
      <rect class="cls-10" x="8.14" width="749.66" height="260.07"/>
    </clipPath>
    <clipPath id="clippath-16">
      <rect class="cls-10" x="8.14" width="749.66" height="260.07"/>
    </clipPath>
    <clipPath id="clippath-17">
      <rect class="cls-10" x="8.14" width="749.66" height="260.07"/>
    </clipPath>
    <clipPath id="clippath-18">
      <rect class="cls-10" x="8.14" width="749.66" height="260.07"/>
    </clipPath>
    <clipPath id="clippath-19">
      <rect class="cls-10" x="8.14" width="749.66" height="260.07"/>
    </clipPath>
  </defs>
  <path class="cls-1" d="m726.77,146.76l1.38.4v-2.79l-1.38.4v1.99Zm-40.86-12.42l1.38.4v-2.79l-1.38.4v1.99Zm-8.05,57.5v-56.47l5.21-1.83v-3.11l4.22-1.51,2.45,1.04v5.58l33.73,10.43v-2.95l4.6-1.43,2.45,1.04v5.41l4.75,1.43v57.42l-4.75,1.83-52.67-16.89Z"/>
  <polygon class="cls-4" points="677.85 135.37 683.43 133.54 737.59 149.39 732.65 151.22 677.85 135.37"/>
  <polygon class="cls-3" points="732.65 208.65 732.65 151.22 737.59 149.39 737.59 206.82 732.65 208.65"/>
  <polygon class="cls-6" points="732.65 163.81 737.59 161.98 737.59 206.82 732.65 208.65 732.65 163.81"/>
  <polygon class="cls-5" points="730.02 144.37 730.02 147.16 730.97 147.56 730.97 144.22 730.02 144.37"/>
  <polygon class="cls-3" points="677.85 135.37 732.65 151.22 732.65 163.81 677.85 146.76 677.85 135.37"/>
  <path class="cls-13" d="m689.54,147.74l10.99,3.19.2-.69-10.99-3.19-.2.69Zm0-3.82l17.12,4.78.19-.69-17.12-4.78-.19.69Z"/>
  <path class="cls-2" d="m680.53,180.72l47.63,14.58.21-.69-47.63-14.58-.21.69Zm0-9.4l47.63,14.81.21-.68-47.63-14.81-.21.68Zm0-9.16l47.63,14.58.21-.69-47.63-14.58-.21.69Zm0-9.4l47.63,14.58.21-.69-47.63-14.57-.21.68Z"/>
  <g class="cls-49">
    <path class="cls-16" d="m714.33,202.99l10.35-6.21c1.12,1.2,2.47,2.15,3.98,2.79l3.98,1.83-18.32,1.59Z"/>
    <path class="cls-12" d="m681.74,147.97c-.15,1.46-.24,2.88-.3,4.32l46.93,14.36-.21.69-46.76-14.31c-.02.46-.03.92-.05,1.38.14,2.52.28,4.97.53,7.41l37.83,11.58c3.83.41,7.69.62,11.55.62.46,0,.93,0,1.39,0v-10.2l-50.91-15.84Z"/>
    <path class="cls-18" d="m685.61,135.79c-.43,0-.87.16-1.23.46-.21.21-.42.55-.58.85l48.85,14.13.81-.3s0-.01,0-.02c-.16-.4-.4-.64-.64-.72l-16.09-5.42-26.36-7.88c-1.43-.48-2.87-.8-4.3-1.04-.14-.04-.29-.06-.44-.06"/>
    <path class="cls-14" d="m733.45,150.92l-.81.3v22.78-10.2l2.98-1.1c.03-1.92-.03-3.84-.19-5.75-.24-2.14-.95-4.13-1.98-6.03"/>
    <path class="cls-7" d="m735.62,162.7l-2.97,1.1v10.2s.05,0,.08,0c1.2-1.75,1.99-3.74,2.55-5.73.2-1.84.31-3.7.35-5.56"/>
    <path class="cls-14" d="m683.8,137.1s-.04.08-.06.11c-.8,3.5-1.51,7.01-1.99,10.59,0,.06-.01.11-.02.17l50.91,15.84v-12.58l-48.85-14.13Zm22.86,11.61l-17.12-4.78.19-.69,17.12,4.78-.19.69Zm-6.14,2.23l-10.99-3.19.2-.69,10.99,3.19-.2.69Z"/>
  </g>
  <path class="cls-13" d="m689.74,143.23l-.19.69,17.12,4.78.19-.69-17.12-4.78Zm0,3.82l-.2.69,10.99,3.19.2-.69-10.99-3.19Z"/>
  <g class="cls-40">
    <path class="cls-12" d="m681.96,162.6c0,.09.02.17.03.26.56,1.04,1.51,1.91,2.55,2.39,2.47,1.04,5.1,1.91,7.65,2.79,7.49,2.31,15.13,3.9,22.94,4.78.13.02.27.04.4.06l-33.56-10.27Z"/>
    <path class="cls-11" d="m681.44,152.29c0,.25-.02.49-.03.74l46.76,14.31.21-.69-46.94-14.36Zm.45,9.53c.03.26.05.52.08.77l33.56,10.27c1.39.2,2.78.38,4.18.53l-37.83-11.58Z"/>
  </g>
  <polygon class="cls-17" points="727.63 154.97 727.63 143.98 732.57 142.54 732.57 147.96 730.97 147.48 730.97 144.14 728.59 144.77 728.59 154.57 727.63 154.97"/>
  <polygon class="cls-8" points="725.24 154.41 725.24 143.02 730.02 141.59 732.81 142.62 727.63 144.06 727.63 154.97 725.24 154.41"/>
  <polygon class="cls-17" points="685.02 142.62 685.02 131.63 690.2 130.04 690.2 135.61 688.6 135.14 688.6 131.63 686.21 132.43 686.21 142.07 685.02 142.62"/>
  <polygon class="cls-8" points="682.87 141.98 682.87 130.59 687.65 129 690.2 130.04 685.02 131.63 685.02 142.62 682.87 141.98"/>
  <polygon class="cls-24" points="678.08 191.7 678.08 135.58 683.46 133.76 683.46 130.67 687.8 129.17 690.33 130.2 690.33 135.74 725.1 146.11 725.1 143.18 729.85 141.76 732.38 142.78 732.38 148.17 737.28 149.59 737.28 206.66 732.38 208.49 678.08 191.7"/>
  <g class="cls-33">
    <rect class="cls-26" x="34.74" y="22.21" width="35.92" height="35.92" rx="4.37" ry="4.37"/>
    <path class="cls-28" d="m77.91,52.16h13.53m-13.53-7.64h13.53m-13.53-7.64h13.53m-13.53-7.64h13.53M13.81,52.15h13.53m-13.53-7.64h13.53m-13.53-7.64h13.53m-13.53-7.64h13.53m36.97,49.82v-13.53m-7.64,13.53v-13.53m-7.64,13.53v-13.53m-7.64,13.53v-13.53m22.92-50.95V1.04m-7.64,13.53V1.04m-7.64,13.53V1.04m-7.64,13.53V1.04"/>
    <path class="cls-31" d="m49.21,35.79c3.75.03,6.82,3,6.99,6.75m-7.07-10.26c5.8,0,10.51,4.65,10.59,10.43m-10.6-13.94c7.8,0,14.12,6.28,14.12,14.04"/>
    <text class="cls-20" transform="translate(8.14 225.52)"><tspan x="0" y="0">Beginning of the </tspan></text>
    <text class="cls-20" transform="translate(8.14 241.17)"><tspan x="0" y="0">d</tspan><tspan class="cls-47" x="6.84" y="0">e</tspan><tspan class="cls-43" x="12.74" y="0">v</tspan><tspan x="18.41" y="0">elopment</tspan></text>
  </g>
  <text class="cls-21" transform="translate(74.46 241.16)"><tspan x="0" y="0" xml:space="preserve">  </tspan></text>
  <text class="cls-20" transform="translate(149.7 226.61)"><tspan x="0" y="0">Submission date</tspan></text>
  <text class="cls-21" transform="translate(232.17 226.61)"><tspan x="0" y="0" xml:space="preserve">  </tspan></text>
  <text class="cls-20" transform="translate(241.98 226.61)"><tspan x="0" y="0">Automatic tests</tspan></text>
  <text class="cls-21" transform="translate(318.52 226.61)"><tspan x="0" y="0" xml:space="preserve">  </tspan></text>
  <text class="cls-20" transform="translate(335.84 225.52)"><tspan class="cls-46" x="0" y="0">T</tspan><tspan x="5.96" y="0">ape Out Date</tspan></text>
  <text class="cls-20" transform="translate(489.9 225.52)"><tspan x="0" y="0">P</tspan><tspan class="cls-55" x="6.28" y="0">r</tspan><tspan class="cls-61" x="10.42" y="0">oduction ends</tspan></text>
  <text class="cls-20" transform="translate(668.23 225.52)"><tspan class="cls-45" x="0" y="0">J</tspan><tspan x="2.99" y="0">oint </tspan><tspan class="cls-50" x="24.78" y="0">e</tspan><tspan class="cls-35" x="30.67" y="0">v</tspan><tspan x="36.44" y="0">aluation </tspan></text>
  <text class="cls-20" transform="translate(668.23 241.17)"><tspan x="0" y="0">ends</tspan></text>
  <g class="cls-52">
    <path class="cls-25" d="m710.09,40.81c5.38,0,9.74-4.36,9.74-9.74s-4.36-9.74-9.74-9.74-9.74,4.36-9.74,9.74,4.36,9.74,9.74,9.74Z"/>
    <path class="cls-25" d="m723.6,70.18c.17-1.46.26-2.96.26-4.51,0-12.68-6.02-22.96-13.44-22.96s-13.44,10.28-13.44,22.96c0,1.54.09,3.05.26,4.51h26.35Z"/>
    <circle class="cls-25" cx="676.01" cy="19.65" r="9.74" transform="translate(8.48 128.19) rotate(-10.9)"/>
    <path class="cls-25" d="m689.52,58.75c.17-1.46.26-2.96.26-4.51,0-12.68-6.02-22.96-13.44-22.96s-13.44,10.28-13.44,22.96c0,1.54.09,3.05.26,4.51h26.35Z"/>
    <path class="cls-25" d="m743.24,29.87c5.38,0,9.74-4.36,9.74-9.73s-4.36-9.74-9.74-9.74-9.74,4.36-9.74,9.74,4.36,9.73,9.74,9.73Z"/>
    <path class="cls-25" d="m756.75,59.24c.17-1.46.26-2.96.26-4.51,0-12.68-6.02-22.96-13.44-22.96s-13.44,10.28-13.44,22.96c0,1.54.09,3.05.26,4.51h26.35Z"/>
    <path class="cls-25" d="m345.5,27.01c-.28,2.4-.43,4.89-.43,7.43,0,20.9,9.92,37.84,22.16,37.84s22.16-16.94,22.16-37.84c0-2.54-.15-5.03-.43-7.43h-43.46Z"/>
    <path class="cls-25" d="m380.32,25.95c.17-1.13.27-2.3.27-3.49,0-9.82-6.17-17.78-13.78-17.78s-13.78,7.96-13.78,17.78c0,1.2.09,2.36.27,3.49h27.03Z"/>
    <path class="cls-15" d="m367.43,42.65c2.24,0,4.06-1.82,4.06-4.06s-1.82-4.06-4.06-4.06-4.06,1.82-4.06,4.06,1.82,4.06,4.06,4.06"/>
    <path class="cls-25" d="m367.43,42.65c2.24,0,4.06-1.82,4.06-4.06s-1.82-4.06-4.06-4.06-4.06,1.82-4.06,4.06,1.82,4.06,4.06,4.06Z"/>
  </g>
  <polygon class="cls-15" points="365.62 42.94 363.78 61.17 371.3 61.17 369.38 42.94 365.62 42.94"/>
  <polygon class="cls-25" points="365.62 42.94 363.78 61.17 371.3 61.17 369.38 42.94 365.62 42.94"/>
  <g class="cls-41">
    <path class="cls-25" d="m422.35,10.03c-.18,1.54-.28,3.13-.28,4.76,0,13.38,6.35,24.22,14.18,24.22s14.18-10.85,14.18-24.22c0-1.63-.1-3.22-.28-4.76h-27.81Z"/>
    <path class="cls-9" d="m424.96,24.7h22.57s-1.97,11.7-10.81,12.51c-8.48.52-11.76-12.51-11.76-12.51"/>
    <path class="cls-27" d="m424.96,24.7h22.57s-1.97,11.7-10.81,12.51c-8.48.52-11.76-12.51-11.76-12.51Z"/>
  </g>
  <polygon class="cls-9" points="423.44 61.98 423.44 68.3 449.28 68.3 449.28 61.94 423.44 61.98"/>
  <polygon class="cls-27" points="423.44 61.98 423.44 68.3 449.28 68.3 449.28 61.94 423.44 61.98"/>
  <g class="cls-58">
    <path class="cls-25" d="m450.07,70.07c.18-1.54.28-3.13.28-4.76,0-13.38-6.35-24.22-14.18-24.22s-14.18,10.84-14.18,24.22c0,1.63.1,3.22.28,4.76h27.81Z"/>
    <rect class="cls-26" x="171.55" y="21.99" width="35.92" height="35.92" rx="4.37" ry="4.37"/>
    <path class="cls-28" d="m214.72,51.95h13.53m-13.53-7.64h13.53m-13.53-7.64h13.53m-13.53-7.64h13.53m-77.62,22.91h13.53m-13.53-7.64h13.53m-13.53-7.64h13.53m-13.53-7.64h13.53m36.97,49.82v-13.53m-7.64,13.53v-13.53m-7.64,13.53v-13.53m-7.64,13.53v-13.53m22.92-50.95V.83m-7.64,13.53V.83m-7.64,13.53V.83m-7.64,13.53V.83"/>
    <path class="cls-31" d="m186.02,35.58c3.75.03,6.82,3,6.99,6.75m-7.07-10.26c5.8,0,10.51,4.65,10.59,10.43m-10.6-13.94c7.8,0,14.12,6.28,14.12,14.04"/>
  </g>
  <path class="cls-29" d="m494.46,21.48h9.16v16.13h-9.16v-16.13Zm13.89-.08h9.16v16.21h-9.16v-16.21Zm13.98,0h9.16v16.2h-9.16v-16.2Zm14.42,24.46h9.16v16.2h-9.16v-16.2Zm-42.27.06h9.16v16.13h-9.16v-16.13Zm13.89-.08h9.16v16.21h-9.16v-16.21Zm13.98,0h9.16v16.2h-9.16v-16.2Z"/>
  <rect class="cls-30" x="536.73" y="21.42" width="9.16" height="16.2"/>
  <g class="cls-37">
    <path class="cls-25" d="m520.96,77.98c20.95,0,37.93-16.98,37.93-37.93s-16.98-37.93-37.93-37.93-37.93,16.98-37.93,37.93,16.98,37.93,37.93,37.93Z"/>
  </g>
  <text class="cls-19" transform="translate(235.1 20.1)"><tspan x="0" y="0">E</tspan><tspan class="cls-59" x="5.87" y="0">v</tspan><tspan x="10.81" y="0">aluation &amp; Selection</tspan></text>
  <text class="cls-19" transform="translate(98.39 16.34)"><tspan x="0" y="0">Submission</tspan></text>
  <line class="cls-27" x1="106.21" y1="40.05" x2="129.91" y2="40.05"/>
  <g class="cls-39">
    <path class="cls-9" d="m138.75,40.05l-11.38-4.14s2.55,4.14,0,8.28l11.38-4.14Z"/>
  </g>
  <line class="cls-27" x1="258.41" y1="40.05" x2="312.92" y2="40.05"/>
  <g class="cls-53">
    <path class="cls-9" d="m321.76,40.05l-11.38-4.14s2.55,4.14,0,8.28l11.38-4.14Z"/>
  </g>
  <line class="cls-27" x1="581.22" y1="40.05" x2="635.73" y2="40.05"/>
  <g class="cls-48">
    <path class="cls-9" d="m644.57,40.05l-11.38-4.14s2.55,4.14,0,8.28l11.38-4.14Z"/>
  </g>
  <text class="cls-19" transform="translate(578.68 21.28)"><tspan x="0" y="0">Sample Sha</tspan><tspan class="cls-44" x="49.76" y="0">r</tspan><tspan x="53.86" y="0">ing</tspan></text>
  <text class="cls-19" transform="translate(487.17 91.97)"><tspan x="0" y="0">IHP Open Chip </tspan></text>
  <text class="cls-19" transform="translate(487.17 107.61)"><tspan x="0" y="0">Depot</tspan></text>
  <text class="cls-19" transform="translate(406.22 91.78)"><tspan x="0" y="0">P</tspan><tspan class="cls-32" x="5.38" y="0">r</tspan><tspan x="8.93" y="0">ocessing at </tspan></text>
  <text class="cls-19" transform="translate(406.22 107.42)"><tspan x="0" y="0">IHP pilot line</tspan></text>
  <text class="cls-19" transform="translate(331.73 92.17)"><tspan x="0" y="0">Final design </tspan></text>
  <text class="cls-19" transform="translate(331.73 107.82)"><tspan x="0" y="0">loc</tspan><tspan class="cls-38" x="13.01" y="0">k</tspan><tspan x="18.12" y="0">ed</tspan></text>
  <text class="cls-19" transform="translate(127.54 93.37)"><tspan x="0" y="0">IHP-GmbH/IHP-Open-DesignLib</tspan></text>
  <text class="cls-19" transform="translate(0 93.79)"><tspan class="cls-62" x="0" y="0">y</tspan><tspan x="4.82" y="0">our/IHP-Open-DesignLib</tspan></text>
  <path class="cls-1" d="m546.1,146.76l1.38.4v-2.79l-1.38.4v1.99Zm-40.86-12.42l1.38.4v-2.79l-1.38.4v1.99Zm-8.05,57.5v-56.47l5.21-1.83v-3.11l4.22-1.51,2.45,1.04v5.58l33.73,10.43v-2.95l4.6-1.43,2.45,1.04v5.41l4.75,1.43v57.42l-4.75,1.83-52.67-16.89Z"/>
  <polygon class="cls-4" points="497.19 135.37 502.76 133.54 556.92 149.39 551.98 151.22 497.19 135.37"/>
  <polygon class="cls-3" points="551.98 208.65 551.98 151.22 556.92 149.39 556.92 206.82 551.98 208.65"/>
  <polygon class="cls-6" points="551.98 163.81 556.92 161.98 556.92 206.82 551.98 208.65 551.98 163.81"/>
  <polygon class="cls-5" points="549.35 144.37 549.35 147.16 550.31 147.56 550.31 144.22 549.35 144.37"/>
  <polygon class="cls-3" points="497.19 135.37 551.98 151.22 551.98 163.81 497.19 146.76 497.19 135.37"/>
  <path class="cls-13" d="m508.87,147.74l10.99,3.19.2-.69-10.99-3.19-.2.69Zm0-3.82l17.12,4.78.19-.69-17.12-4.78-.19.69Z"/>
  <path class="cls-2" d="m499.87,180.72l47.63,14.58.21-.69-47.63-14.58-.21.69Zm0-9.4l47.63,14.81.21-.68-47.63-14.81-.21.68Zm0-9.16l47.63,14.58.21-.69-47.63-14.58-.21.69Zm0-9.4l47.63,14.58.21-.69-47.63-14.57-.21.68Z"/>
  <g class="cls-60">
    <path class="cls-16" d="m533.66,202.99l10.35-6.21c1.12,1.2,2.47,2.15,3.98,2.79l3.98,1.83-18.32,1.59Z"/>
    <path class="cls-12" d="m501.07,147.97c-.15,1.46-.24,2.88-.3,4.32l46.93,14.36-.21.69-46.76-14.31c-.02.46-.03.92-.05,1.38.14,2.52.28,4.97.53,7.41l37.83,11.58c3.83.41,7.69.62,11.55.62.46,0,.93,0,1.39,0v-10.2l-50.91-15.84Z"/>
    <path class="cls-18" d="m504.95,135.79c-.43,0-.87.16-1.23.46-.21.21-.42.55-.58.85l48.85,14.13.81-.3s0-.01,0-.02c-.16-.4-.4-.64-.64-.72l-16.09-5.42-26.36-7.88c-1.43-.48-2.87-.8-4.3-1.04-.14-.04-.29-.06-.44-.06"/>
    <path class="cls-14" d="m552.79,150.92l-.81.3v22.78-10.2l2.98-1.1c.03-1.92-.03-3.84-.19-5.75-.24-2.14-.95-4.13-1.98-6.03"/>
    <path class="cls-7" d="m554.96,162.7l-2.97,1.1v10.2s.05,0,.08,0c1.2-1.75,1.99-3.74,2.55-5.73.2-1.84.31-3.7.35-5.56"/>
    <path class="cls-14" d="m503.14,137.1s-.04.08-.06.11c-.8,3.5-1.51,7.01-1.99,10.59,0,.06-.01.11-.02.17l50.91,15.84v-12.58l-48.85-14.13Zm22.86,11.61l-17.12-4.78.19-.69,17.12,4.78-.19.69Zm-6.14,2.23l-10.99-3.19.2-.69,10.99,3.19-.2.69Z"/>
  </g>
  <path class="cls-13" d="m509.07,143.23l-.19.69,17.12,4.78.19-.69-17.12-4.78Zm0,3.82l-.2.69,10.99,3.19.2-.69-10.99-3.19Z"/>
  <g class="cls-22">
    <path class="cls-12" d="m501.3,162.6c0,.09.02.17.03.26.56,1.04,1.51,1.91,2.55,2.39,2.47,1.04,5.1,1.91,7.65,2.79,7.49,2.31,15.13,3.9,22.94,4.78.13.02.27.04.4.06l-33.56-10.27Z"/>
    <path class="cls-11" d="m500.77,152.29c0,.25-.02.49-.03.74l46.76,14.31.21-.69-46.94-14.36Zm.45,9.53c.03.26.05.52.08.77l33.56,10.27c1.39.2,2.78.38,4.18.53l-37.83-11.58Z"/>
  </g>
  <polygon class="cls-17" points="546.97 154.97 546.97 143.98 551.9 142.54 551.9 147.96 550.31 147.48 550.31 144.14 547.92 144.77 547.92 154.57 546.97 154.97"/>
  <polygon class="cls-8" points="544.58 154.41 544.58 143.02 549.36 141.59 552.14 142.62 546.97 144.06 546.97 154.97 544.58 154.41"/>
  <polygon class="cls-17" points="504.35 142.62 504.35 131.63 509.53 130.04 509.53 135.61 507.94 135.14 507.94 131.63 505.55 132.43 505.55 142.07 504.35 142.62"/>
  <polygon class="cls-8" points="502.2 141.98 502.2 130.59 506.98 129 509.53 130.04 504.35 131.63 504.35 142.62 502.2 141.98"/>
  <polygon class="cls-24" points="497.42 191.7 497.42 135.58 502.79 133.76 502.79 130.67 507.14 129.17 509.67 130.2 509.67 135.74 544.44 146.11 544.44 143.18 549.18 141.76 551.71 142.78 551.71 148.17 556.61 149.59 556.61 206.66 551.71 208.49 497.42 191.7"/>
  <path class="cls-1" d="m389.68,146.76l1.38.4v-2.79l-1.38.4v1.99Zm-40.86-12.42l1.38.4v-2.79l-1.38.4v1.99Zm-8.05,57.5v-56.47l5.21-1.83v-3.11l4.22-1.51,2.45,1.04v5.58l33.73,10.43v-2.95l4.6-1.43,2.45,1.04v5.41l4.75,1.43v57.42l-4.75,1.83-52.67-16.89Z"/>
  <polygon class="cls-4" points="340.77 135.37 346.34 133.54 400.5 149.39 395.56 151.22 340.77 135.37"/>
  <polygon class="cls-3" points="395.56 208.65 395.56 151.22 400.5 149.39 400.5 206.82 395.56 208.65"/>
  <polygon class="cls-6" points="395.56 163.81 400.5 161.98 400.5 206.82 395.56 208.65 395.56 163.81"/>
  <polygon class="cls-5" points="392.94 144.37 392.94 147.16 393.89 147.56 393.89 144.22 392.94 144.37"/>
  <polygon class="cls-3" points="340.77 135.37 395.56 151.22 395.56 163.81 340.77 146.76 340.77 135.37"/>
  <path class="cls-13" d="m352.46,147.74l10.99,3.19.2-.69-10.99-3.19-.2.69Zm0-3.82l17.12,4.78.19-.69-17.12-4.78-.19.69Z"/>
  <path class="cls-2" d="m343.45,180.72l47.63,14.58.21-.69-47.63-14.58-.21.69Zm0-9.4l47.63,14.81.21-.68-47.63-14.81-.21.68Zm0-9.16l47.63,14.58.21-.69-47.63-14.58-.21.69Zm0-9.4l47.63,14.58.21-.69-47.63-14.57-.21.68Z"/>
  <g class="cls-42">
    <path class="cls-16" d="m377.24,202.99l10.35-6.21c1.12,1.2,2.47,2.15,3.98,2.79l3.98,1.83-18.32,1.59Z"/>
    <path class="cls-12" d="m344.65,147.97c-.15,1.46-.24,2.88-.3,4.32l46.93,14.36-.21.69-46.76-14.31c-.02.46-.03.92-.05,1.38.14,2.52.28,4.97.53,7.41l37.83,11.58c3.83.41,7.69.62,11.55.62.47,0,.93,0,1.4,0v-10.2l-50.91-15.84Z"/>
    <path class="cls-18" d="m348.53,135.79c-.43,0-.87.16-1.23.46-.21.21-.42.55-.58.85l48.85,14.13.81-.3s0-.01,0-.02c-.16-.4-.4-.64-.64-.72l-16.09-5.42-26.36-7.88c-1.43-.48-2.87-.8-4.3-1.04-.14-.04-.29-.06-.44-.06"/>
    <path class="cls-14" d="m396.37,150.92l-.81.3v22.78-10.2l2.98-1.1c.03-1.92-.03-3.84-.19-5.75-.24-2.14-.95-4.13-1.98-6.03"/>
    <path class="cls-7" d="m398.54,162.7l-2.97,1.1v10.2s.05,0,.08,0c1.2-1.75,1.99-3.74,2.55-5.73.2-1.84.31-3.7.35-5.56"/>
    <path class="cls-14" d="m346.72,137.1s-.04.08-.06.11c-.8,3.5-1.51,7.01-1.99,10.59,0,.06-.01.11-.02.17l50.91,15.84v-12.58l-48.85-14.13Zm22.86,11.61l-17.12-4.78.19-.69,17.12,4.78-.19.69Zm-6.14,2.23l-10.99-3.19.2-.69,10.99,3.19-.2.69Z"/>
  </g>
  <path class="cls-13" d="m352.65,143.23l-.19.69,17.12,4.78.19-.69-17.12-4.78Zm0,3.82l-.2.69,10.99,3.19.2-.69-10.99-3.19Z"/>
  <g class="cls-34">
    <path class="cls-12" d="m344.88,162.6c0,.09.02.17.03.26.56,1.04,1.51,1.91,2.55,2.39,2.47,1.04,5.1,1.91,7.65,2.79,7.49,2.31,15.13,3.9,22.94,4.78.13.02.27.04.4.06l-33.56-10.27Z"/>
    <path class="cls-11" d="m344.35,152.29c0,.25-.02.49-.03.74l46.76,14.31.21-.69-46.94-14.36Zm.45,9.53c.03.26.05.52.08.77l33.56,10.27c1.39.2,2.78.38,4.18.53l-37.83-11.58Z"/>
  </g>
  <polygon class="cls-17" points="390.55 154.97 390.55 143.98 395.48 142.54 395.48 147.96 393.89 147.48 393.89 144.14 391.5 144.77 391.5 154.57 390.55 154.97"/>
  <polygon class="cls-8" points="388.16 154.41 388.16 143.02 392.94 141.59 395.72 142.62 390.55 144.06 390.55 154.97 388.16 154.41"/>
  <polygon class="cls-17" points="347.94 142.62 347.94 131.63 353.11 130.04 353.11 135.61 351.52 135.14 351.52 131.63 349.13 132.43 349.13 142.07 347.94 142.62"/>
  <polygon class="cls-8" points="345.78 141.98 345.78 130.59 350.56 129 353.11 130.04 347.94 131.63 347.94 142.62 345.78 141.98"/>
  <polygon class="cls-24" points="341 191.7 341 135.58 346.37 133.76 346.37 130.67 350.72 129.17 353.25 130.2 353.25 135.74 388.02 146.11 388.02 143.18 392.76 141.76 395.29 142.78 395.29 148.17 400.19 149.59 400.19 206.66 395.29 208.49 341 191.7"/>
  <path class="cls-1" d="m301.3,146.76l1.38.4v-2.79l-1.38.4v1.99Zm-40.86-12.42l1.38.4v-2.79l-1.38.4v1.99Zm-8.05,57.5v-56.47l5.21-1.83v-3.11l4.22-1.51,2.45,1.04v5.58l33.73,10.43v-2.95l4.6-1.43,2.45,1.04v5.41l4.75,1.43v57.42l-4.75,1.83-52.67-16.89Z"/>
  <polygon class="cls-4" points="252.39 135.37 257.97 133.54 312.12 149.39 307.19 151.22 252.39 135.37"/>
  <polygon class="cls-3" points="307.19 208.65 307.19 151.22 312.12 149.39 312.12 206.82 307.19 208.65"/>
  <polygon class="cls-6" points="307.19 163.81 312.12 161.98 312.12 206.82 307.19 208.65 307.19 163.81"/>
  <polygon class="cls-5" points="304.56 144.37 304.56 147.16 305.51 147.56 305.51 144.22 304.56 144.37"/>
  <polygon class="cls-3" points="252.39 135.37 307.19 151.22 307.19 163.81 252.39 146.76 252.39 135.37"/>
  <path class="cls-13" d="m264.08,147.74l10.99,3.19.2-.69-10.99-3.19-.2.69Zm0-3.82l17.12,4.78.19-.69-17.12-4.78-.19.69Z"/>
  <path class="cls-2" d="m255.07,180.72l47.63,14.58.21-.69-47.63-14.58-.21.69Zm0-9.4l47.63,14.81.21-.68-47.63-14.81-.21.68Zm0-9.16l47.63,14.58.21-.69-47.63-14.58-.21.69Zm0-9.4l47.63,14.58.21-.69-47.63-14.57-.21.68Z"/>
  <g class="cls-56">
    <path class="cls-16" d="m288.87,202.99l10.35-6.21c1.12,1.2,2.47,2.15,3.98,2.79l3.98,1.83-18.32,1.59Z"/>
    <path class="cls-12" d="m256.27,147.97c-.15,1.46-.24,2.88-.3,4.32l46.93,14.36-.21.69-46.76-14.31c-.02.46-.03.92-.05,1.38.14,2.52.28,4.97.53,7.41l37.83,11.58c3.83.41,7.69.62,11.55.62.47,0,.93,0,1.4,0v-10.2l-50.91-15.84Z"/>
    <path class="cls-18" d="m260.15,135.79c-.43,0-.87.16-1.23.46-.21.21-.42.55-.58.85l48.85,14.13.81-.3s0-.01,0-.02c-.16-.4-.4-.64-.64-.72l-16.09-5.42-26.36-7.88c-1.43-.48-2.87-.8-4.3-1.04-.14-.04-.29-.06-.44-.06"/>
    <path class="cls-14" d="m307.99,150.92l-.81.3v22.78-10.2l2.98-1.1c.03-1.92-.03-3.84-.19-5.75-.24-2.14-.95-4.13-1.98-6.03"/>
    <path class="cls-7" d="m310.16,162.7l-2.97,1.1v10.2s.05,0,.08,0c1.2-1.75,1.99-3.74,2.55-5.73.2-1.84.31-3.7.35-5.56"/>
    <path class="cls-14" d="m258.34,137.1s-.04.08-.06.11c-.8,3.5-1.51,7.01-1.99,10.59,0,.06-.01.11-.02.17l50.91,15.84v-12.58l-48.85-14.13Zm22.86,11.61l-17.12-4.78.19-.69,17.12,4.78-.19.69Zm-6.14,2.23l-10.99-3.19.2-.69,10.99,3.19-.2.69Z"/>
  </g>
  <path class="cls-13" d="m264.27,143.23l-.19.69,17.12,4.78.19-.69-17.12-4.78Zm0,3.82l-.2.69,10.99,3.19.2-.69-10.99-3.19Z"/>
  <g class="cls-36">
    <path class="cls-12" d="m256.5,162.6c0,.09.02.17.03.26.56,1.04,1.51,1.91,2.55,2.39,2.47,1.04,5.1,1.91,7.65,2.79,7.49,2.31,15.13,3.9,22.94,4.78.13.02.27.04.4.06l-33.56-10.27Z"/>
    <path class="cls-11" d="m255.98,152.29c0,.25-.02.49-.03.74l46.76,14.31.21-.69-46.94-14.36Zm.45,9.53c.03.26.05.52.08.77l33.56,10.27c1.39.2,2.78.38,4.18.53l-37.83-11.58Z"/>
  </g>
  <polygon class="cls-17" points="302.17 154.97 302.17 143.98 307.11 142.54 307.11 147.96 305.51 147.48 305.51 144.14 303.13 144.77 303.13 154.57 302.17 154.97"/>
  <polygon class="cls-8" points="299.78 154.41 299.78 143.02 304.56 141.59 307.35 142.62 302.17 144.06 302.17 154.97 299.78 154.41"/>
  <polygon class="cls-17" points="259.56 142.62 259.56 131.63 264.74 130.04 264.74 135.61 263.14 135.14 263.14 131.63 260.75 132.43 260.75 142.07 259.56 142.62"/>
  <polygon class="cls-8" points="257.41 141.98 257.41 130.59 262.19 129 264.74 130.04 259.56 131.63 259.56 142.62 257.41 141.98"/>
  <polygon class="cls-24" points="252.62 191.7 252.62 135.58 257.99 133.76 257.99 130.67 262.34 129.17 264.87 130.2 264.87 135.74 299.64 146.11 299.64 143.18 304.39 141.76 306.92 142.78 306.92 148.17 311.81 149.59 311.81 206.66 306.92 208.49 252.62 191.7"/>
  <path class="cls-1" d="m210.58,146.76l1.38.4v-2.79l-1.38.4v1.99Zm-40.86-12.42l1.38.4v-2.79l-1.38.4v1.99Zm-8.05,57.5v-56.47l5.21-1.83v-3.11l4.22-1.51,2.45,1.04v5.58l33.73,10.43v-2.95l4.6-1.43,2.45,1.04v5.41l4.75,1.43v57.42l-4.75,1.83-52.67-16.89Z"/>
  <polygon class="cls-4" points="161.67 135.37 167.24 133.54 221.4 149.39 216.46 151.22 161.67 135.37"/>
  <polygon class="cls-3" points="216.46 208.65 216.46 151.22 221.4 149.39 221.4 206.82 216.46 208.65"/>
  <polygon class="cls-6" points="216.46 163.81 221.4 161.98 221.4 206.82 216.46 208.65 216.46 163.81"/>
  <polygon class="cls-5" points="213.83 144.37 213.83 147.16 214.79 147.56 214.79 144.22 213.83 144.37"/>
  <polygon class="cls-3" points="161.67 135.37 216.46 151.22 216.46 163.81 161.67 146.76 161.67 135.37"/>
  <path class="cls-13" d="m173.35,147.74l10.99,3.19.2-.69-10.99-3.19-.2.69Zm0-3.82l17.12,4.78.19-.69-17.12-4.78-.19.69Z"/>
  <path class="cls-2" d="m164.35,180.72l47.63,14.58.21-.69-47.63-14.58-.21.69Zm0-9.4l47.63,14.81.21-.68-47.63-14.81-.21.68Zm0-9.16l47.63,14.58.21-.69-47.63-14.58-.21.69Zm0-9.4l47.63,14.58.21-.69-47.63-14.57-.21.68Z"/>
  <g class="cls-23">
    <path class="cls-16" d="m198.14,202.99l10.35-6.21c1.12,1.2,2.47,2.15,3.98,2.79l3.98,1.83-18.32,1.59Z"/>
    <path class="cls-12" d="m165.55,147.97c-.15,1.46-.24,2.88-.3,4.32l46.93,14.36-.21.69-46.76-14.31c-.02.46-.03.92-.05,1.38.14,2.52.28,4.97.53,7.41l37.83,11.58c3.83.41,7.69.62,11.55.62.47,0,.93,0,1.4,0v-10.2l-50.91-15.84Z"/>
    <path class="cls-18" d="m169.43,135.79c-.43,0-.87.16-1.23.46-.21.21-.42.55-.58.85l48.85,14.13.81-.3s0-.01,0-.02c-.16-.4-.4-.64-.64-.72l-16.09-5.42-26.36-7.88c-1.43-.48-2.87-.8-4.3-1.04-.14-.04-.29-.06-.44-.06"/>
    <path class="cls-14" d="m217.27,150.92l-.81.3v22.78-10.2l2.98-1.1c.03-1.92-.03-3.84-.19-5.75-.24-2.14-.95-4.13-1.98-6.03"/>
    <path class="cls-7" d="m219.44,162.7l-2.97,1.1v10.2s.05,0,.08,0c1.2-1.75,1.99-3.74,2.55-5.73.2-1.84.31-3.7.35-5.56"/>
    <path class="cls-14" d="m167.62,137.1s-.04.08-.06.11c-.8,3.5-1.51,7.01-1.99,10.59,0,.06-.01.11-.02.17l50.91,15.84v-12.58l-48.85-14.13Zm22.86,11.61l-17.12-4.78.19-.69,17.12,4.78-.19.69Zm-6.14,2.23l-10.99-3.19.2-.69,10.99,3.19-.2.69Z"/>
  </g>
  <path class="cls-13" d="m173.55,143.23l-.19.69,17.12,4.78.19-.69-17.12-4.78Zm0,3.82l-.2.69,10.99,3.19.2-.69-10.99-3.19Z"/>
  <g class="cls-57">
    <path class="cls-12" d="m165.78,162.6c0,.09.02.17.03.26.56,1.04,1.51,1.91,2.55,2.39,2.47,1.04,5.1,1.91,7.65,2.79,7.49,2.31,15.13,3.9,22.94,4.78.13.02.27.04.4.06l-33.56-10.27Z"/>
    <path class="cls-11" d="m165.25,152.29c0,.25-.02.49-.03.74l46.76,14.31.21-.69-46.94-14.36Zm.45,9.53c.03.26.05.52.08.77l33.56,10.27c1.39.2,2.78.38,4.18.53l-37.83-11.58Z"/>
  </g>
  <polygon class="cls-17" points="211.45 154.97 211.45 143.98 216.38 142.54 216.38 147.96 214.79 147.48 214.79 144.14 212.4 144.77 212.4 154.57 211.45 154.97"/>
  <polygon class="cls-8" points="209.06 154.41 209.06 143.02 213.84 141.59 216.62 142.62 211.45 144.06 211.45 154.97 209.06 154.41"/>
  <polygon class="cls-17" points="168.83 142.62 168.83 131.63 174.01 130.04 174.01 135.61 172.42 135.14 172.42 131.63 170.03 132.43 170.03 142.07 168.83 142.62"/>
  <polygon class="cls-8" points="166.68 141.98 166.68 130.59 171.46 129 174.01 130.04 168.84 131.63 168.84 142.62 166.68 141.98"/>
  <polygon class="cls-24" points="161.9 191.7 161.9 135.58 167.27 133.76 167.27 130.67 171.62 129.17 174.15 130.2 174.15 135.74 208.92 146.11 208.92 143.18 213.66 141.76 216.19 142.78 216.19 148.17 221.09 149.59 221.09 206.66 216.19 208.49 161.9 191.7"/>
  <path class="cls-1" d="m74.59,146.76l1.38.4v-2.79l-1.38.4v1.99Zm-40.86-12.42l1.38.4v-2.79l-1.38.4v1.99Zm-8.05,57.5v-56.47l5.21-1.83v-3.11l4.22-1.51,2.45,1.04v5.58l33.73,10.43v-2.95l4.6-1.43,2.45,1.04v5.41l4.75,1.43v57.42l-4.75,1.83-52.67-16.89Z"/>
  <polygon class="cls-4" points="25.67 135.37 31.25 133.54 85.41 149.39 80.47 151.22 25.67 135.37"/>
  <polygon class="cls-3" points="80.47 208.65 80.47 151.22 85.41 149.39 85.41 206.82 80.47 208.65"/>
  <polygon class="cls-6" points="80.47 163.81 85.41 161.98 85.41 206.82 80.47 208.65 80.47 163.81"/>
  <polygon class="cls-5" points="77.84 144.37 77.84 147.16 78.79 147.56 78.79 144.22 77.84 144.37"/>
  <polygon class="cls-3" points="25.67 135.37 80.47 151.22 80.47 163.81 25.67 146.76 25.67 135.37"/>
  <path class="cls-13" d="m37.36,147.74l10.99,3.19.2-.69-10.99-3.19-.2.69Zm0-3.82l17.12,4.78.19-.69-17.12-4.78-.19.69Z"/>
  <path class="cls-2" d="m28.35,180.72l47.63,14.58.21-.69-47.63-14.58-.21.69Zm0-9.4l47.63,14.81.21-.68-47.63-14.81-.21.68Zm0-9.16l47.63,14.58.21-.69-47.63-14.58-.21.69Zm0-9.4l47.63,14.58.21-.69-47.63-14.57-.21.68Z"/>
  <g class="cls-54">
    <path class="cls-16" d="m62.15,202.99l10.35-6.21c1.12,1.2,2.47,2.15,3.98,2.79l3.98,1.83-18.32,1.59Z"/>
    <path class="cls-12" d="m29.56,147.97c-.15,1.46-.24,2.88-.3,4.32l46.93,14.36-.21.69-46.76-14.31c-.02.46-.03.92-.05,1.38.14,2.52.28,4.97.53,7.41l37.83,11.58c3.83.41,7.69.62,11.55.62.47,0,.93,0,1.4,0v-10.2l-50.91-15.84Z"/>
    <path class="cls-18" d="m33.43,135.79c-.43,0-.87.16-1.23.46-.21.21-.42.55-.58.85l48.85,14.13.81-.3s0-.01,0-.02c-.16-.4-.4-.64-.64-.72l-16.09-5.42-26.36-7.88c-1.43-.48-2.87-.8-4.3-1.04-.14-.04-.29-.06-.44-.06"/>
    <path class="cls-14" d="m81.27,150.92l-.81.3v22.78-10.2l2.98-1.1c.03-1.92-.03-3.84-.19-5.75-.24-2.14-.95-4.13-1.98-6.03"/>
    <path class="cls-7" d="m83.44,162.7l-2.97,1.1v10.2s.05,0,.08,0c1.2-1.75,1.99-3.74,2.55-5.73.2-1.84.31-3.7.35-5.56"/>
    <path class="cls-14" d="m31.62,137.1s-.04.08-.06.11c-.8,3.5-1.51,7.01-1.99,10.59,0,.06-.01.11-.02.17l50.91,15.84v-12.58l-48.85-14.13Zm22.86,11.61l-17.12-4.78.19-.69,17.12,4.78-.19.69Zm-6.14,2.23l-10.99-3.19.2-.69,10.99,3.19-.2.69Z"/>
  </g>
  <path class="cls-13" d="m37.55,143.23l-.19.69,17.12,4.78.19-.69-17.12-4.78Zm0,3.82l-.2.69,10.99,3.19.2-.69-10.99-3.19Z"/>
  <g class="cls-51">
    <path class="cls-12" d="m29.78,162.6c0,.09.02.17.03.26.56,1.04,1.51,1.91,2.55,2.39,2.47,1.04,5.1,1.91,7.65,2.79,7.49,2.31,15.13,3.9,22.94,4.78.13.02.27.04.4.06l-33.56-10.27Z"/>
    <path class="cls-11" d="m29.26,152.29c0,.25-.02.49-.03.74l46.76,14.31.21-.69-46.94-14.36Zm.45,9.53c.03.26.05.52.08.77l33.56,10.27c1.39.2,2.78.38,4.18.53l-37.83-11.58Z"/>
  </g>
  <polygon class="cls-17" points="75.45 154.97 75.45 143.98 80.39 142.54 80.39 147.96 78.79 147.48 78.79 144.14 76.41 144.77 76.41 154.57 75.45 154.97"/>
  <polygon class="cls-8" points="73.06 154.41 73.06 143.02 77.84 141.59 80.63 142.62 75.45 144.06 75.45 154.97 73.06 154.41"/>
  <polygon class="cls-17" points="32.84 142.62 32.84 131.63 38.02 130.04 38.02 135.61 36.42 135.14 36.42 131.63 34.03 132.43 34.03 142.07 32.84 142.62"/>
  <polygon class="cls-8" points="30.69 141.98 30.69 130.59 35.47 129 38.02 130.04 32.84 131.63 32.84 142.62 30.69 141.98"/>
  <polygon class="cls-24" points="25.9 191.7 25.9 135.58 31.28 133.76 31.28 130.67 35.62 129.17 38.15 130.2 38.15 135.74 72.92 146.11 72.92 143.18 77.67 141.76 80.2 142.78 80.2 148.17 85.1 149.59 85.1 206.66 80.2 208.49 25.9 191.7"/>
</svg>